<?xml version="1.0" encoding="UTF-8" standalone="no"?>
<!-- Created with Inkscape (http://www.inkscape.org/) -->

<svg
   version="1.1"
   id="svg824"
   xml:space="preserve"
   width="377.952"
   height="136.06267"
   viewBox="0 0 377.952 136.06267"
   sodipodi:docname="sciences_lab.svg"
   inkscape:version="1.1 (c68e22c387, 2021-05-23)"
   xmlns:inkscape="http://www.inkscape.org/namespaces/inkscape"
   xmlns:sodipodi="http://sodipodi.sourceforge.net/DTD/sodipodi-0.dtd"
   xmlns="http://www.w3.org/2000/svg"
   xmlns:svg="http://www.w3.org/2000/svg"><defs
     id="defs828"><clipPath
       clipPathUnits="userSpaceOnUse"
       id="clipPath838"><path
         d="M 0,102.047 H 283.464 V 0 H 0 Z"
         id="path836" /></clipPath></defs><sodipodi:namedview
     id="namedview826"
     pagecolor="#ffffff"
     bordercolor="#666666"
     borderopacity="1.0"
     inkscape:pageshadow="2"
     inkscape:pageopacity="0.0"
     inkscape:pagecheckerboard="0"
     showgrid="false"
     inkscape:zoom="4.7836763"
     inkscape:cx="188.976"
     inkscape:cy="68.043902"
     inkscape:window-width="2560"
     inkscape:window-height="1361"
     inkscape:window-x="-9"
     inkscape:window-y="-9"
     inkscape:window-maximized="1"
     inkscape:current-layer="g830" /><g
     id="g830"
     inkscape:groupmode="layer"
     inkscape:label="SCIENCES-Lab_Logo_CMYK"
     transform="matrix(1.3333333,0,0,-1.3333333,0,136.06267)"><g
       id="g840"
       transform="translate(267.4204,57.6333)"><path
         d="m 0,0 c 0.625,-2.694 2.537,-3.904 5.661,-3.904 3.122,0 4.449,1.249 4.449,3.201 0,2.225 -1.288,3.161 -5.894,4.216 -7.34,1.717 -9.134,4.411 -9.134,8.042 0,4.685 3.513,7.846 9.876,7.846 7.144,0 9.994,-3.825 10.384,-7.768 H 9.486 c -0.312,1.679 -1.21,3.474 -4.684,3.474 -2.382,0 -3.787,-0.976 -3.787,-2.889 0,-1.873 1.131,-2.654 5.504,-3.63 7.808,-1.874 9.525,-4.763 9.525,-8.588 0,-4.88 -3.708,-8.277 -10.813,-8.277 -6.832,0 -10.462,3.358 -11.087,8.277 z m -7.962,3.708 h -12.883 v -6.832 h 14.211 l -0.703,-4.762 h -19.168 v 26.897 h 19.09 v -4.762 h -13.43 V 8.51 H -7.962 Z M -29.079,0.429 c -1.055,-5.036 -4.841,-8.706 -11.594,-8.706 -8.55,0 -12.571,6.051 -12.571,13.702 0,7.379 4.178,13.976 12.844,13.976 7.183,0 10.657,-4.177 11.321,-8.705 h -5.816 c -0.586,2.108 -2.03,4.177 -5.701,4.177 -4.801,0 -6.636,-4.333 -6.636,-9.252 0,-4.528 1.601,-9.33 6.793,-9.33 3.825,0 4.996,2.537 5.504,4.138 z m -49.582,-8.315 v 26.897 h 7.221 C -68.082,13 -61.875,2.068 -60.626,-0.859 h 0.079 c -0.313,2.81 -0.313,7.495 -0.313,11.906 v 7.964 h 5.271 V -7.886 h -6.832 C -65.31,-2.616 -72.181,9.876 -73.547,13 h -0.078 c 0.195,-2.343 0.272,-7.886 0.272,-12.688 v -8.198 z m -3.512,11.594 h -12.882 v -6.832 h 14.21 l -0.703,-4.762 h -19.168 v 26.897 h 19.09 V 14.249 H -95.055 V 8.51 h 12.882 z m -22.218,-11.594 h -5.816 v 26.897 h 5.816 z m -7.571,8.315 c -1.054,-5.036 -4.841,-8.706 -11.594,-8.706 -8.55,0 -12.57,6.051 -12.57,13.702 0,7.379 4.176,13.976 12.843,13.976 7.183,0 10.658,-4.177 11.321,-8.705 h -5.817 c -0.585,2.108 -2.03,4.177 -5.7,4.177 -4.801,0 -6.636,-4.333 -6.636,-9.252 0,-4.528 1.601,-9.33 6.793,-9.33 3.826,0 4.997,2.537 5.505,4.138 z M -153.536,0 c 0.625,-2.694 2.537,-3.904 5.661,-3.904 3.123,0 4.45,1.249 4.45,3.201 0,2.225 -1.288,3.161 -5.895,4.216 -7.339,1.717 -9.135,4.411 -9.135,8.042 0,4.685 3.514,7.846 9.877,7.846 7.144,0 9.994,-3.825 10.384,-7.768 h -5.856 c -0.312,1.679 -1.21,3.474 -4.684,3.474 -2.381,0 -3.787,-0.976 -3.787,-2.889 0,-1.873 1.132,-2.654 5.504,-3.63 7.808,-1.874 9.526,-4.763 9.526,-8.588 0,-4.88 -3.709,-8.277 -10.814,-8.277 -6.832,0 -10.462,3.358 -11.087,8.277 z"
         style="fill:#00adef;fill-opacity:1;fill-rule:nonzero;stroke:none"
         id="path842" /></g><g
       id="g844"
       transform="translate(167.269,34.0542)"><path
         d="m 0,0 c -3.268,0 -4.423,-2.111 -4.423,-6.335 0,-3.467 1.036,-6.136 4.343,-6.136 2.909,0 4.463,2.59 4.463,6.495 C 4.383,-2.51 3.068,0 0,0 M -10.055,12.146 H -4.24 V 1.913 c 0.838,1.315 2.646,2.67 5.993,2.67 5.618,0 8.407,-4.663 8.407,-10.44 0,-5.896 -3.028,-11.157 -8.965,-11.157 -3.068,0 -4.439,0.917 -5.435,2.431 v -1.952 h -5.815 c 0.039,2.231 0,28.681 0,28.681 m -8.937,-19.277 h -2.311 c -3.466,0 -4.741,-1.077 -4.741,-3.069 0,-1.474 0.916,-2.749 2.988,-2.749 3.626,0 4.064,2.549 4.064,5.259 z m 5.579,-4.065 c 0,-1.993 0.159,-4.862 0.279,-5.339 h -5.459 c -0.159,0.398 -0.279,1.514 -0.279,2.032 -0.757,-1.156 -2.152,-2.511 -5.817,-2.511 -4.981,0 -7.053,3.268 -7.053,6.456 0,4.701 3.745,6.893 9.802,6.893 h 2.948 v 1.235 c 0,1.474 -0.518,2.909 -3.187,2.909 -2.391,0 -2.949,-0.997 -3.188,-2.51 h -5.419 c 0.279,3.665 2.55,6.614 8.846,6.614 5.498,-0.04 8.527,-2.191 8.527,-7.133 z m -40.183,23.335 h 5.937 v -23.813 h 14.521 l -0.678,-4.861 h -19.78 z"
         style="fill:#254aa5;fill-opacity:1;fill-rule:nonzero;stroke:none"
         id="path846" /></g><g
       id="g848"
       transform="translate(53.377,67.6108)"><path
         d="m 0,0 c -6.529,0 -11.822,-5.292 -11.822,-11.821 0,-3.824 1.822,-6.213 4.637,-8.373 v -6.89 H 6.464 v 2.904 h 0.667 c 1.224,0 2.396,0.458 3.263,1.274 0.176,0.163 0.331,0.336 0.468,0.517 l 0.01,0.007 c 0.573,0.736 0.884,1.63 0.89,2.552 l -0.024,3.532 h 1.052 c 1.086,0 1.82,1.094 1.102,2.294 -0.226,0.378 -2.234,4.06 -2.234,4.06 C 10.757,-4.31 5.888,0 0,0 m 8.313,-44.218 v 2.258 H 1.774 v -5.407 h 3.014 v -1.869 H 1.774 v -5.407 h 3.164 v 2.425 h 6.647 v -2.425 h 3.529 v -1.869 h -3.529 v -2.332 H 4.938 v 2.332 H 1.774 v -2.649 l 3.77,-3.757 -4.707,-4.693 -4.709,4.693 3.77,3.756 v 2.65 H -3.5 v 1.869 h 3.398 v 5.407 h -10.783 v -2.068 h -6.648 v 2.068 h -7.568 v 1.869 h 7.568 v 2.688 h 6.648 v -2.688 h 10.783 v 5.407 h -3.387 v 1.87 h 3.387 v 3.339 2.067 h -7.057 v 1.87 h 7.057 v 2.611 0.077 h 6.648 v -2.688 h 6.076 v -1.87 H 6.546 v -2.067 H 1.774 v -3.339 h 6.539 v 2.498 h 6.648 v -2.498 h 4.41 v -1.87 h -4.41 v -2.258 z"
         style="fill:#254aa5;fill-opacity:1;fill-rule:nonzero;stroke:none"
         id="path850" /></g><g
       id="g852"
       transform="translate(67.1382,63.5786)"><path
         d="m 0,0 23.469,23.389 c -9.612,9.48 -21.981,14.508 -34.518,15.08 V 7.8 C -6.32,6.991 -2.297,4.091 0,0"
         style="fill:#b3db18;fill-opacity:1;fill-rule:nonzero;stroke:none"
         id="path854" /></g><g
       id="g856"
       transform="translate(52.3364,71.5581)"><path
         d="M 0,0 V 19.057 C -10.147,18.726 -20.334,14.633 -27.209,8.128 L -12.086,-6.946 C -9.424,-2.999 -5.027,-0.33 0,0"
         style="fill:#f68624;fill-opacity:1;fill-rule:nonzero;stroke:none"
         id="path858" /></g><g
       id="g860"
       transform="translate(37.5552,55.7896)"><path
         d="M 0,0 C 0,1.944 0.37,3.8 1.014,5.522 L -23.629,30.081 C -32.252,20.559 -37.515,7.959 -37.555,-5.868 H 1.13 C 0.396,-4.03 0,-2.049 0,0"
         style="fill:#00adef;fill-opacity:1;fill-rule:nonzero;stroke:none"
         id="path862" /></g><g
       id="g864"
       transform="translate(42.1924,46.1821)"><path
         d="m 0,0 h -31.421 c 0.785,-10.173 5.209,-19.327 11.989,-26.166 L 0,-6.799 Z"
         style="fill:#1ea487;fill-opacity:1;fill-rule:nonzero;stroke:none"
         id="path866" /></g><g
       id="g868"
       transform="translate(68.9673,46.1821)"><path
         d="M 0,0 C -0.252,-1.233 -0.783,-2.41 -1.563,-3.411 L -1.87,-3.801 -1.918,-3.839 C -2.092,-4.035 -2.272,-4.221 -2.455,-4.39 -3.048,-4.949 -3.711,-5.415 -4.424,-5.781 L 13.724,-23.867 C 19.762,-17.527 23.732,-9.218 24.556,0 Z"
         style="fill:#9f2899;fill-opacity:1;fill-rule:nonzero;stroke:none"
         id="path870" /></g><g
       id="g872"
       transform="translate(68.6724,59.7368)"><path
         d="M 0,0 C 0.669,-1.362 1.168,-2.4 1.545,-3.206 1.792,-3.655 1.973,-3.98 2.028,-4.075 3.109,-5.881 3.17,-7.991 2.19,-9.72 2.172,-9.753 2.148,-9.782 2.129,-9.815 H 33.375 C 33.333,1.426 29.436,12.644 21.717,21.74 L -0.005,0.019 C -0.003,0.012 -0.001,0.006 0,0"
         style="fill:#b3a58e;fill-opacity:1;fill-rule:nonzero;stroke:none"
         id="path874" /></g></g></svg>
